<?xml version="1.0" encoding="utf-8"?>
<!-- Generator: Adobe Illustrator 23.0.3, SVG Export Plug-In . SVG Version: 6.00 Build 0)  -->
<svg version="1.1" id="Layer_1" xmlns="http://www.w3.org/2000/svg" xmlns:xlink="http://www.w3.org/1999/xlink" x="0px" y="0px"
	 viewBox="0 0 579.9 44.7" style="enable-background:new 0 0 579.9 44.7;" xml:space="preserve">
<style type="text/css">
	.st0{fill:#99CD72;}
	.st1{fill:#99CC6F;}
	.st2{fill:#95CB71;}
	.st3{fill:#A0CD6C;}
	.st4{fill:#A7CF6B;}
	.st5{fill:#8EC66C;}
	.st6{fill:#8AC36C;}
	.st7{fill:#83BF6B;}
	.st8{fill:#99CA69;}
	.st9{fill:#6FB267;}
	.st10{fill:#7CBA68;}
	.st11{fill:#77B768;}
	.st12{fill:#7CBA6A;}
	.st13{fill:#99CB6B;}
	.st14{fill:#81BE69;}
	.st15{fill:#94C869;}
	.st16{fill:#88C36A;}
	.st17{fill:#93C96B;}
	.st18{fill:#A0CD6A;}
	.st19{fill:#9BC965;}
	.st20{fill:#74B567;}
	.st21{fill:#7CBC65;}
	.st22{fill:#7EBD65;}
	.st23{fill:#6EB164;}
	.st24{fill:#99C965;}
	.st25{fill:#8BC567;}
	.st26{fill:#70B462;}
	.st27{fill:#A1CD69;}
	.st28{fill:#9ECB66;}
	.st29{fill:#83B84E;}
	.st30{fill:#A2CA61;}
	.st31{fill:#ADD169;}
	.st32{fill:#A9CF68;}
	.st33{fill:#94C766;}
	.st34{fill:#A6CE68;}
	.st35{fill:#9AC55C;}
	.st36{fill:#87C368;}
	.st37{fill:#90C666;}
	.st38{fill:#78B864;}
	.st39{fill:#83C066;}
	.st40{fill:#75B665;}
	.st41{fill:#6EB267;}
	.st42{fill:#A0CB65;}
	.st43{fill:#AACF67;}
	.st44{fill:#A6CD65;}
	.st45{fill:#67AE65;}
	.st46{fill:#7FBE65;}
	.st47{fill:#A5CC65;}
	.st48{fill:#7BBB64;}
	.st49{fill:#6CB061;}
	.st50{fill:#A5CD65;}
	.st51{fill:#8DBE54;}
	.st52{fill:#8DC566;}
	.st53{fill:#6BAF64;}
	.st54{fill:#62AB5F;}
	.st55{fill:#66AF66;}
	.st56{fill:#91C057;}
	.st57{fill:#79B348;}
	.st58{fill:#5CA436;}
	.st59{fill:#5EAB64;}
	.st60{fill:#89C466;}
	.st61{fill:#77B863;}
	.st62{fill:#73B663;}
	.st63{fill:#84C266;}
	.st64{fill:#61AD67;}
	.st65{fill:#71B462;}
	.st66{fill:#5FAD68;}
	.st67{fill:#55A761;}
	.st68{fill:#9ECA65;}
	.st69{fill:#A4CC63;}
	.st70{fill:#7AB448;}
	.st71{fill:#82C066;}
	.st72{fill:#92C766;}
	.st73{fill:#97C865;}
	.st74{fill:#61AB61;}
	.st75{fill:#5BA860;}
	.st76{fill:#9CC75D;}
	.st77{fill:#68AE60;}
	.st78{fill:#5DAB64;}
	.st79{fill:#59AA67;}
	.st80{fill:#86BA4F;}
	.st81{fill:#9DC75E;}
	.st82{fill:#9DCA65;}
	.st83{fill:#59A961;}
	.st84{fill:#63AC60;}
	.st85{fill:#89BC52;}
	.st86{fill:#70AE42;}
	.st87{fill:#5FAA60;}
	.st88{fill:#A2CC65;}
	.st89{fill:#5CA95F;}
	.st90{fill:#53A65F;}
	.st91{fill:#71AF43;}
	.st92{fill:#73B044;}
	.st93{fill:#6BAB3F;}
	.st94{fill:#6EAD41;}
	.st95{fill:#61AB5F;}
	.st96{fill:#6CAC40;}
	.st97{fill:#65A83B;}
	.st98{fill:#A6CD64;}
	.st99{fill:#50A561;}
	.st100{fill:#52A764;}
	.st101{fill:#5AA335;}
	.st102{fill:#54A65F;}
	.st103{fill:#59A85F;}
	.st104{fill:#5FA538;}
	.st105{fill:#4E9C2E;}
	.st106{fill:#80B74C;}
	.st107{fill:#86BA50;}
	.st108{fill:#509D2F;}
	.st109{fill:#74B045;}
	.st110{fill:#92C157;}
	.st111{fill:#58A133;}
	.st112{fill:#4D9C2D;}
	.st113{fill:#47A25E;}
	.st114{fill:#49A35E;}
	.st115{fill:#4FA45E;}
	.st116{fill:#43A15E;}
	.st117{fill:#66A93C;}
	.st118{fill:#58A134;}
	.st119{fill:#55A032;}
	.st120{fill:#59A234;}
</style>
<g>
	<polygon class="st0" points="326.5,44.7 328.2,44.7 328,42 	"/>
	<polygon class="st1" points="304.9,44.7 326.5,44.7 328,42 	"/>
	<polygon class="st2" points="328.2,44.7 330.2,44.7 328,42 	"/>
	<polygon class="st3" points="245.5,44.7 273.3,44.7 259.8,26.9 	"/>
	<polygon class="st4" points="202,44.7 236.8,44.7 228.2,21.8 	"/>
	<polygon class="st5" points="328,42 330.2,44.7 351.1,44.7 350.8,23.1 	"/>
	<polygon class="st6" points="360.4,44.7 379.1,44.7 366.6,26.2 	"/>
	<polygon class="st7" points="392.9,44.7 400.7,44.7 398.2,32.5 	"/>
	<polygon class="st8" points="259.8,26.9 273.3,44.7 278.2,44.7 281.3,21.2 	"/>
	<polygon class="st9" points="463.4,44.7 481.2,44.7 480.4,30.7 	"/>
	<polygon class="st10" points="398.2,32.5 400.7,44.7 422.4,44.7 436.8,32.5 	"/>
	<polygon class="st11" points="437.5,44.7 445,44.7 436.8,32.5 	"/>
	<polygon class="st12" points="422.4,44.7 437.5,44.7 436.8,32.5 	"/>
	<polygon class="st13" points="278.2,44.7 289.5,44.7 281.3,21.2 	"/>
	<polygon class="st14" points="366.6,26.2 379.1,44.7 392.9,44.7 398.2,32.5 	"/>
	<polygon class="st15" points="281.3,21.2 289.5,44.7 290.1,44.7 289.5,16.8 	"/>
	<polygon class="st16" points="350.8,23.1 351.1,44.7 360.4,44.7 366.6,26.2 	"/>
	<polygon class="st17" points="289.5,16.8 290.1,44.7 304.9,44.7 328,42 	"/>
	<polygon class="st18" points="239.6,24.3 239.6,44.7 245.5,44.7 259.8,26.9 	"/>
	<polygon class="st19" points="239.6,24.3 240.4,0 238.1,0 233.9,18.6 	"/>
	<polygon class="st20" points="445,44.7 460,44.7 436.8,32.5 	"/>
	<polygon class="st21" points="366.6,26.2 398.2,32.5 373.5,11.1 	"/>
	<polygon class="st22" points="350.8,23.1 366.6,26.2 373.5,11.1 	"/>
	<polygon class="st23" points="436.8,32.5 460,44.7 462.3,44.7 467.1,20.5 	"/>
	<polygon class="st24" points="259.8,26.9 246.6,0 240.4,0 239.6,24.3 	"/>
	<polygon class="st25" points="289.5,16.8 328,42 323,7.3 	"/>
	<polygon class="st26" points="409,14.8 436.8,32.5 418.4,8.5 	"/>
	<polygon class="st27" points="228.2,21.8 236.8,44.7 239.6,44.7 239.6,24.3 	"/>
	<polygon class="st28" points="228.2,21.8 239.6,24.3 233.9,18.6 	"/>
	<polygon class="st29" points="100.8,44.7 101.2,44.7 101.1,44.6 	"/>
	<polygon class="st30" points="145.9,44.7 160.2,44.7 168.1,36.3 	"/>
	<polygon class="st31" points="168.1,36.3 160.2,44.7 187.4,44.7 197.1,44.7 196.6,23.7 	"/>
	<polygon class="st32" points="196.6,23.7 197.1,44.7 198.3,44.7 204.8,18.6 	"/>
	<polygon class="st33" points="281.3,21.2 273.6,0 263.4,0 259.8,26.9 	"/>
	<polygon class="st34" points="204.8,18.6 198.3,44.7 202,44.7 228.2,21.8 	"/>
	<polygon class="st35" points="148.5,2.2 140.2,44.7 145.9,44.7 168.1,36.3 	"/>
	<polygon class="st36" points="328,42 350.8,23.1 323,7.3 	"/>
	<polygon class="st37" points="289.5,16.8 286.8,0 283.8,0 281.3,21.2 	"/>
	<polygon class="st38" points="373.5,11.1 398.2,32.5 409,14.8 	"/>
	<polygon class="st39" points="323,7.3 350.8,23.1 348.3,1 	"/>
	<polygon class="st40" points="398.2,32.5 436.8,32.5 409,14.8 	"/>
	<polygon class="st41" points="481.2,44.7 490.4,44.7 480.4,30.7 	"/>
	<polygon class="st42" points="228.2,21.8 218.6,0 207.6,0 204.8,18.6 	"/>
	<polygon class="st43" points="168.1,36.3 196.6,23.7 181.4,16.8 	"/>
	<polygon class="st44" points="181.4,16.8 204.8,18.6 175.7,5.4 	"/>
	<polygon class="st45" points="480.4,30.7 490.4,44.7 508.4,44.7 516.4,30 	"/>
	<polygon class="st46" points="348.3,1 350.8,23.1 373.5,11.1 	"/>
	<polygon class="st47" points="204.8,18.6 202.5,0 181.5,0 175.7,5.4 	"/>
	<polygon class="st22" points="373.5,11.1 367.9,0 349.8,0 348.3,1 	"/>
	<polygon class="st48" points="381.2,0 367.9,0 373.5,11.1 	"/>
	<polygon class="st49" points="436.8,32.5 458.3,0 443.3,0 424,0 418.4,8.5 	"/>
	<polygon class="st50" points="196.6,23.7 204.8,18.6 181.4,16.8 	"/>
	<polygon class="st51" points="101.2,44.7 101.5,44.7 101.1,44.6 	"/>
	<polygon class="st52" points="323,7.3 308,0 286.8,0 289.5,16.8 	"/>
	<polygon class="st53" points="467.1,20.5 462.3,44.7 463.4,44.7 480.4,30.7 	"/>
	<polygon class="st54" points="467.1,20.5 480.4,30.7 492.4,1 	"/>
	<polygon class="st55" points="508.4,44.7 527.9,44.7 516.4,30 	"/>
	<polygon class="st56" points="101.5,44.7 103.8,44.7 101.1,44.6 	"/>
	<polygon class="st57" points="101.1,44.6 99.2,21.2 94.2,25.6 	"/>
	<polygon class="st58" points="24.2,44.7 34.8,44.7 25.3,34.5 	"/>
	<polygon class="st59" points="516.4,30 527.9,44.7 538.4,44.7 541,28.1 	"/>
	<polygon class="st60" points="324.7,0 308,0 323,7.3 	"/>
	<polygon class="st61" points="409,14.8 401.7,0 381.2,0 373.5,11.1 	"/>
	<polygon class="st62" points="418.4,8.5 410.1,0 401.7,0 409,14.8 	"/>
	<polygon class="st63" points="348.3,1 347.3,0 324.7,0 323,7.3 	"/>
	<polygon class="st64" points="548.4,44.7 550,44.7 549.9,43.3 	"/>
	<polygon class="st65" points="424,0 410.1,0 418.4,8.5 	"/>
	<polygon class="st66" points="550,44.7 551.8,44.7 549.9,43.3 	"/>
	<polygon class="st67" points="549.9,43.3 553.1,11.1 541,28.1 	"/>
	<polygon class="st68" points="233.9,18.6 222.2,0 218.6,0 228.2,21.8 	"/>
	<polygon class="st69" points="175.7,5.4 168.1,36.3 181.4,16.8 	"/>
	<polygon class="st70" points="94.2,25.6 86.1,44.7 100.8,44.7 101.1,44.6 	"/>
	<polygon class="st46" points="349.8,0 348.5,0 348.3,1 	"/>
	<polygon class="st71" points="348.5,0 347.3,0 348.3,1 	"/>
	<polygon class="st72" points="283.8,0 273.6,0 281.3,21.2 	"/>
	<polygon class="st73" points="263.4,0 246.6,0 259.8,26.9 	"/>
	<polygon class="st74" points="480.4,30.7 516.4,30 500.6,13.6 	"/>
	<polygon class="st75" points="500.6,13.6 516.4,30 527.2,18.6 	"/>
	<polygon class="st76" points="175.7,5.4 173.2,0 150.2,0 148.5,2.2 	"/>
	<polygon class="st77" points="467.1,20.5 463.8,0 458.3,0 436.8,32.5 	"/>
	<polygon class="st78" points="541,28.1 538.4,44.7 548.4,44.7 549.9,43.3 	"/>
	<polygon class="st79" points="551.8,44.7 559.9,44.7 549.9,43.3 	"/>
	<polygon class="st80" points="101.1,44.6 103.8,44.7 136,44.7 99.2,21.2 	"/>
	<polygon class="st81" points="148.5,2.2 168.1,36.3 175.7,5.4 	"/>
	<polygon class="st82" points="238.1,0 222.2,0 233.9,18.6 	"/>
	<polygon class="st83" points="516.4,30 541,28.1 527.2,18.6 	"/>
	<polygon class="st84" points="492.4,1 488.7,0 463.8,0 467.1,20.5 	"/>
	<polygon class="st85" points="99.2,21.2 136,44.7 140.2,44.7 148.5,2.2 	"/>
	<polygon class="st86" points="63.8,25 74.3,44.7 86.1,44.7 94.2,25.6 	"/>
	<polygon class="st87" points="492.4,1 480.4,30.7 500.6,13.6 	"/>
	<polygon class="st88" points="207.6,0 202.5,0 204.8,18.6 	"/>
	<polygon class="st89" points="500.6,13.6 507.3,0 493.4,0 492.5,0 492.4,1 	"/>
	<polygon class="st90" points="541,28.1 553.1,11.1 527.2,18.6 	"/>
	<polygon class="st91" points="99.2,21.2 94.8,0 91.6,0 89.1,16.8 	"/>
	<polygon class="st92" points="94.2,25.6 99.2,21.2 89.1,16.8 	"/>
	<polygon class="st93" points="89.1,16.8 91.6,0 80.6,0 70.8,7.3 	"/>
	<polygon class="st94" points="60.7,44.7 74.3,44.7 63.8,25 	"/>
	<polygon class="st95" points="492.5,0 488.7,0 492.4,1 	"/>
	<polygon class="st96" points="63.8,25 94.2,25.6 89.1,16.8 	"/>
	<polygon class="st97" points="70.8,7.3 63.8,25 89.1,16.8 	"/>
	<polygon class="st98" points="181.5,0 173.2,0 175.7,5.4 	"/>
	<polygon class="st99" points="549.9,43.3 579.9,36.7 579.9,23.7 553.1,11.1 	"/>
	<polygon class="st100" points="559.9,44.7 579.9,44.7 579.9,36.7 549.9,43.3 	"/>
	<polygon class="st101" points="3.5,44.7 14.7,44.7 5.7,36.3 	"/>
	<polygon class="st102" points="553.1,11.1 547.7,0 541.6,0 523.1,0 527.2,18.6 	"/>
	<polygon class="st103" points="527.2,18.6 523.1,0 507.3,0 500.6,13.6 	"/>
	<polygon class="st104" points="25.3,34.5 34.8,44.7 60.7,44.7 63.8,25 	"/>
	<polygon class="st105" points="63.8,25 21,0 18.6,0 25.3,34.5 	"/>
	<polygon class="st106" points="148.5,2.2 142.4,0 102.7,0 99.2,21.2 	"/>
	<polygon class="st107" points="146.9,0 142.4,0 148.5,2.2 	"/>
	<polygon class="st108" points="25.3,34.5 18.6,0 17.8,0 5.7,36.3 	"/>
	<polygon class="st109" points="102.7,0 94.8,0 99.2,21.2 	"/>
	<polygon class="st110" points="150.2,0 146.9,0 148.5,2.2 	"/>
	<polygon class="st111" points="5.7,36.3 14.7,44.7 24.2,44.7 25.3,34.5 	"/>
	<polygon class="st112" points="43,0 21,0 63.8,25 	"/>
	<polygon class="st113" points="579.9,23.7 579.9,11.1 553.1,11.1 	"/>
	<polygon class="st114" points="565.8,0 553.1,11.1 579.9,11.1 579.9,1 578.6,0 	"/>
	<polygon class="st115" points="565.8,0 547.7,0 553.1,11.1 	"/>
	<polygon class="st116" points="578.6,0 579.9,1 579.9,0 	"/>
	<polygon class="st117" points="80.6,0 69.2,0 70.8,7.3 	"/>
	<polygon class="st118" points="70.8,7.3 56.9,0 43,0 63.8,25 	"/>
	<polygon class="st112" points="17.8,0 15.7,0 0,0 0,9.6 0,26.9 5.7,36.3 	"/>
	<polygon class="st119" points="0,26.9 0,44.7 3.5,44.7 5.7,36.3 	"/>
	<polygon class="st120" points="69.2,0 56.9,0 70.8,7.3 	"/>
</g>
</svg>
